STARTFONT 2.1
FONT -Monotype-Arial Narrow-Bold-I-Normal--33-240-100-100-P-145-iso8859-4
SIZE 24 100 100
FONTBOUNDINGBOX 36 38 -7 -7

STARTPROPERTIES 24
FOUNDRY "Monotype"
FAMILY_NAME "Arial Narrow"
WEIGHT_NAME "Bold"
SLANT "I"
SETWIDTH_NAME "Normal"
ADD_STYLE_NAME ""
PIXEL_SIZE 33
POINT_SIZE 240
RESOLUTION_X 100
RESOLUTION_Y 100
SPACING "P"
AVERAGE_WIDTH 145
CHARSET_REGISTRY "iso8859"
CHARSET_ENCODING "4"
FACE_NAME "Arial Narrow Bold Italic ISO Latin4"
_DEC_DEVICE_FONTNAMES "PS=arialnarrow-bit-lat4"
COPYRIGHT "Copyright (c) 1993 Monotype Typography Ltd."
CAP_HEIGHT 27
X_HEIGHT 19
WEIGHT 10
QUAD_WIDTH 17
DEFAULT_CHAR 160
FONT_DESCENT 7
FONT_ASCENT 31
ENDPROPERTIES

CHARS 191

STARTCHAR space
ENCODING 32
SWIDTH 228 0
DWIDTH 8 0
BBX 0 0 0 0
BITMAP
ENDCHAR

STARTCHAR exclam
ENCODING 33
SWIDTH 273 0
DWIDTH 9 0
BBX 8 24 2 0
BITMAP
0F
1E
1E
1E
1E
1E
1C
3C
3C
3C
38
38
38
38
30
30
30
70
00
00
F0
F0
F0
F0
ENDCHAR

STARTCHAR quotedbl
ENCODING 34
SWIDTH 389 0
DWIDTH 13 0
BBX 11 9 4 15
BITMAP
79E0
FBC0
F3C0
F3C0
F3C0
F3C0
E380
E380
E380
ENDCHAR

STARTCHAR numbersign
ENCODING 35
SWIDTH 456 0
DWIDTH 15 0
BBX 15 24 1 0
BITMAP
071C
071C
071C
0E38
0E38
0E38
FFFE
FFFE
FFFE
FFFE
1C70
1C70
1C70
1C70
FFFE
FFFE
FFFE
FFFE
38E0
38E0
38E0
71C0
71C0
71C0
ENDCHAR

STARTCHAR dollar
ENCODING 36
SWIDTH 456 0
DWIDTH 15 0
BBX 14 29 1 -3
BITMAP
0060
00C0
07F0
0FF8
1FF8
1EFC
3CDC
399C
3980
3D80
3D80
1F80
1FC0
0FE0
07F0
03F8
0378
0338
6638
E638
F678
F678
7FF0
7FE0
3FC0
0F00
0C00
0C00
0C00
ENDCHAR

STARTCHAR percent
ENCODING 37
SWIDTH 729 0
DWIDTH 24 0
BBX 21 26 2 -2
BITMAP
0E0070
3F00E0
7F81E0
7381C0
738380
E38380
E38700
E38E00
E70E00
E71C00
7F1C00
7E3800
3C7000
0071E0
00E3F0
01C7F8
01C738
038738
038E38
070E38
0E0E38
0E0E70
1C0E70
3C07F0
3807E0
700380
ENDCHAR

STARTCHAR ampersand
ENCODING 38
SWIDTH 592 0
DWIDTH 20 0
BBX 17 24 2 0
BITMAP
01F000
03F800
07FC00
0F3C00
0E1C00
0E3C00
0F3C00
0F7800
0FF000
07E000
1F8000
1FC000
3FC000
7BE200
71F300
F0F780
F0FF00
F07F00
F03E00
787E00
7FFF80
7FFF00
3FE700
0F8200
ENDCHAR

STARTCHAR quoteright
ENCODING 39
SWIDTH 228 0
DWIDTH 8 0
BBX 6 10 3 14
BITMAP
3C
38
78
78
18
18
30
70
E0
C0
ENDCHAR

STARTCHAR parenleft
ENCODING 40
SWIDTH 273 0
DWIDTH 9 0
BBX 10 31 2 -7
BITMAP
01C0
0380
0700
0700
0E00
1E00
1C00
3C00
3800
3800
7800
7000
7000
F000
F000
F000
E000
E000
E000
E000
E000
E000
E000
E000
F000
7000
7000
7000
7000
3000
3800
ENDCHAR

STARTCHAR parenright
ENCODING 41
SWIDTH 273 0
DWIDTH 9 0
BBX 10 31 -2 -7
BITMAP
0300
0380
0380
0380
0380
01C0
01C0
01C0
01C0
01C0
01C0
01C0
01C0
01C0
01C0
03C0
03C0
03C0
0380
0380
0780
0700
0700
0F00
0E00
1E00
1C00
3800
3800
7000
E000
ENDCHAR

STARTCHAR asterisk
ENCODING 42
SWIDTH 319 0
DWIDTH 11 0
BBX 9 11 3 13
BITMAP
1C00
1800
1800
C980
FF80
FF80
1C00
3E00
7600
7700
2200
ENDCHAR

STARTCHAR plus
ENCODING 43
SWIDTH 479 0
DWIDTH 16 0
BBX 13 16 2 4
BITMAP
0700
0700
0700
0700
0700
0700
FFF8
FFF8
FFF8
FFF8
0700
0700
0700
0700
0700
0700
ENDCHAR

STARTCHAR comma
ENCODING 44
SWIDTH 228 0
DWIDTH 8 0
BBX 6 10 0 -6
BITMAP
3C
38
78
78
18
18
30
70
E0
C0
ENDCHAR

STARTCHAR minus
ENCODING 45
SWIDTH 479 0
DWIDTH 16 0
BBX 14 4 2 10
BITMAP
FFFC
FFFC
FFFC
FFFC
ENDCHAR

STARTCHAR period
ENCODING 46
SWIDTH 228 0
DWIDTH 8 0
BBX 5 4 1 0
BITMAP
78
70
F0
F0
ENDCHAR

STARTCHAR slash
ENCODING 47
SWIDTH 228 0
DWIDTH 8 0
BBX 12 25 -1 -1
BITMAP
0070
0070
0060
00E0
00C0
01C0
01C0
0180
0380
0300
0700
0700
0600
0E00
0E00
1C00
1C00
1800
3800
3800
7000
7000
6000
E000
E000
ENDCHAR

STARTCHAR zero
ENCODING 48
SWIDTH 456 0
DWIDTH 15 0
BBX 14 24 2 0
BITMAP
03C0
07F0
0FF8
1FF8
1E38
3C3C
3C3C
383C
783C
783C
783C
783C
F038
F078
F078
F078
F070
F0F0
F0F0
79E0
7FE0
3FC0
3F80
0F00
ENDCHAR

STARTCHAR one
ENCODING 49
SWIDTH 456 0
DWIDTH 15 0
BBX 11 24 3 0
BITMAP
00E0
01E0
03C0
07C0
0FC0
3FC0
7FC0
7DC0
7380
C780
0780
0780
0780
0780
0700
0F00
0F00
0F00
0F00
0F00
0E00
1E00
1E00
1E00
ENDCHAR

STARTCHAR two
ENCODING 50
SWIDTH 456 0
DWIDTH 15 0
BBX 14 24 2 0
BITMAP
03C0
0FF0
1FF8
1FF8
3E3C
3C3C
3C3C
0C3C
003C
0078
00F8
00F0
01F0
03E0
07C0
0F80
1F00
1F00
3E00
7C00
7FF8
7FF0
FFF0
FFF0
ENDCHAR

STARTCHAR three
ENCODING 51
SWIDTH 456 0
DWIDTH 15 0
BBX 14 24 1 0
BITMAP
03E0
07F0
0FF8
1FF8
1E3C
3C3C
1C3C
003C
003C
0078
01F8
03F0
03E0
03F0
00F8
0078
0078
7078
F078
70F0
7FF0
7FE0
3FC0
0F00
ENDCHAR

STARTCHAR four
ENCODING 52
SWIDTH 456 0
DWIDTH 15 0
BBX 14 24 1 0
BITMAP
001C
003C
007C
007C
00FC
01F8
01F8
03F8
07B8
0F78
0E70
1E70
3C70
38F0
70F0
FFFC
FFFC
FFFC
FFF8
01E0
01E0
01E0
01C0
01C0
ENDCHAR

STARTCHAR five
ENCODING 53
SWIDTH 456 0
DWIDTH 15 0
BBX 14 23 2 0
BITMAP
0FFC
1FF8
1FF8
1FF8
1C00
3C00
3C00
3FC0
3FE0
7FF0
7CF8
7078
0078
0078
0078
2078
E078
F0F0
F1F0
7FE0
7FC0
3F80
0E00
ENDCHAR

STARTCHAR six
ENCODING 54
SWIDTH 456 0
DWIDTH 15 0
BBX 14 24 2 0
BITMAP
01E0
07F0
0FF8
1FF8
3E3C
3C3C
3C00
7800
7BC0
7FE0
7FF0
FCF0
F878
F078
F078
F078
F078
F078
70F0
78F0
7FE0
3FE0
3FC0
0F00
ENDCHAR

STARTCHAR seven
ENCODING 55
SWIDTH 456 0
DWIDTH 15 0
BBX 13 23 3 0
BITMAP
7FF8
FFF8
FFF8
FFF8
00F0
01E0
01C0
03C0
0780
0780
0F00
0F00
1E00
1E00
1C00
3C00
3C00
3800
7800
7800
7800
7000
F000
ENDCHAR

STARTCHAR eight
ENCODING 56
SWIDTH 456 0
DWIDTH 15 0
BBX 14 24 2 0
BITMAP
07E0
0FF0
1FF8
3E7C
3C3C
383C
383C
3C38
1C78
0FF0
1FC0
3FF0
7CF0
7878
F078
F078
F078
F078
F0F0
F8F0
7FE0
7FE0
3FC0
0F00
ENDCHAR

STARTCHAR nine
ENCODING 57
SWIDTH 456 0
DWIDTH 15 0
BBX 14 24 1 0
BITMAP
03C0
0FF0
1FF0
1FF8
3C78
3C3C
783C
783C
783C
783C
783C
787C
3CFC
3FF8
1FF8
0F78
0078
00F0
F0F0
F1F0
7FE0
7FC0
3F80
1E00
ENDCHAR

STARTCHAR colon
ENCODING 58
SWIDTH 273 0
DWIDTH 9 0
BBX 7 17 2 0
BITMAP
1E
1C
3C
3C
00
00
00
00
00
00
00
00
00
F0
F0
F0
F0
ENDCHAR

STARTCHAR semicolon
ENCODING 59
SWIDTH 273 0
DWIDTH 9 0
BBX 8 23 1 -6
BITMAP
0F
0E
1E
1E
00
00
00
00
00
00
00
00
00
3C
78
78
78
18
38
30
70
E0
C0
ENDCHAR

STARTCHAR less
ENCODING 60
SWIDTH 479 0
DWIDTH 16 0
BBX 14 18 2 3
BITMAP
0004
001C
007C
01FC
03FC
0FF0
3FC0
FF00
F400
F800
FE00
7F80
1FE0
07F8
03FC
00FC
003C
000C
ENDCHAR

STARTCHAR equal
ENCODING 61
SWIDTH 479 0
DWIDTH 16 0
BBX 14 11 2 6
BITMAP
FFFC
FFFC
FFFC
FFFC
0000
0000
0000
FFFC
FFFC
FFFC
FFFC
ENDCHAR

STARTCHAR greater
ENCODING 62
SWIDTH 479 0
DWIDTH 16 0
BBX 14 18 2 3
BITMAP
8000
C000
F000
FC00
FF00
7FC0
0FF0
03FC
00BC
007C
01FC
07F8
1FE0
7F80
FE00
FC00
F000
C000
ENDCHAR

STARTCHAR question
ENCODING 63
SWIDTH 501 0
DWIDTH 17 0
BBX 13 24 3 0
BITMAP
0FC0
1FF0
3FF0
7CF8
7038
F038
F038
0078
00F8
01F0
03E0
07C0
0F80
0F00
1E00
1E00
1C00
3C00
0000
3C00
3C00
3800
3800
7800
ENDCHAR

STARTCHAR at
ENCODING 64
SWIDTH 800 0
DWIDTH 26 0
BBX 25 31 1 -7
BITMAP
003F0000
01FFE000
03FFF000
07C0F800
0F003C00
1C001E00
3C000E00
387DE600
70FEE700
71FFE300
61E3C300
E3C3C300
E383C300
C783C300
C783C300
C703C700
C7038700
C7038600
C7078E00
E7879C00
E78FBC00
E3FFF800
71FBF000
70F3C000
38000380
3C000700
1E001E00
0FC07E00
07FFF800
01FFF000
003F8000
ENDCHAR

STARTCHAR A
ENCODING 65
SWIDTH 592 0
DWIDTH 20 0
BBX 18 24 0 0
BITMAP
001E00
003E00
003E00
007F00
007F00
00F700
00F700
01E700
01E700
03C700
03C780
07C780
078780
078780
0F0780
0FFF80
1FFF80
1FFFC0
3FFFC0
3C03C0
7803C0
7803C0
F803C0
F003C0
ENDCHAR

STARTCHAR B
ENCODING 66
SWIDTH 592 0
DWIDTH 20 0
BBX 18 24 2 0
BITMAP
0FFE00
0FFF00
1FFF80
1FFFC0
1E07C0
1E03C0
1E03C0
1E03C0
3C07C0
3C0F80
3FFF00
3FFC00
3FFF00
3FFF80
780F80
780780
780780
780780
700F80
701F00
FFFF00
FFFE00
FFFC00
FFF000
ENDCHAR

STARTCHAR C
ENCODING 67
SWIDTH 592 0
DWIDTH 20 0
BBX 18 24 3 0
BITMAP
01F800
07FE00
0FFF00
1FFF80
3F0F80
3E0780
7C07C0
7803C0
780000
F80000
F00000
F00000
F00000
F00000
F00000
F00C00
F00F80
F80F00
781F00
7C3E00
7FFC00
3FFC00
1FF000
07C000
ENDCHAR

STARTCHAR D
ENCODING 68
SWIDTH 592 0
DWIDTH 20 0
BBX 18 24 2 0
BITMAP
0FF800
1FFE00
1FFF00
1FFF80
1E0F80
1E0780
1E03C0
3C03C0
3C03C0
3C03C0
3C03C0
3C03C0
7C03C0
7803C0
7807C0
780780
780780
780F80
F81F00
F03E00
FFFE00
FFFC00
FFF800
FFE000
ENDCHAR

STARTCHAR E
ENCODING 69
SWIDTH 547 0
DWIDTH 18 0
BBX 19 24 1 0
BITMAP
0FFFE0
0FFFC0
0FFFC0
0FFFC0
1E0000
1E0000
1E0000
1E0000
1E0000
1FFF80
3FFF00
3FFF00
3FFF00
3C0000
3C0000
380000
780000
780000
780000
780000
7FFF00
7FFF00
FFFF00
FFFE00
ENDCHAR

STARTCHAR F
ENCODING 70
SWIDTH 501 0
DWIDTH 17 0
BBX 18 24 1 0
BITMAP
0FFFC0
0FFF80
0FFF80
1FFF80
1E0000
1E0000
1E0000
1E0000
1E0000
3C0000
3FFF00
3FFE00
3FFE00
3FFE00
3C0000
780000
780000
780000
780000
780000
780000
F00000
F00000
F00000
ENDCHAR

STARTCHAR G
ENCODING 71
SWIDTH 638 0
DWIDTH 21 0
BBX 19 24 2 0
BITMAP
00FC00
03FF00
07FF80
0FFFC0
1F07C0
3E03E0
3C01E0
780180
780000
780000
F00000
F07FC0
F07FC0
F07FC0
F07FC0
F00380
F00380
F80780
780780
7C1F80
3FFF80
3FFF00
1FFC00
07F000
ENDCHAR

STARTCHAR H
ENCODING 72
SWIDTH 592 0
DWIDTH 20 0
BBX 20 24 1 0
BITMAP
0F00F0
0F00F0
0F01E0
0F01E0
0F01E0
1E01E0
1E01E0
1E03E0
1E03C0
1FFFC0
3FFFC0
3FFFC0
3FFBC0
3C0780
3C0780
3C0780
780780
780780
780780
780F00
780F00
780F00
F00F00
F00F00
ENDCHAR

STARTCHAR I
ENCODING 73
SWIDTH 228 0
DWIDTH 8 0
BBX 8 24 1 0
BITMAP
0F
0F
0F
1E
1E
1E
1E
1E
1E
3C
3C
3C
3C
3C
78
78
78
78
78
78
F0
F0
F0
F0
ENDCHAR

STARTCHAR J
ENCODING 74
SWIDTH 456 0
DWIDTH 15 0
BBX 16 24 1 0
BITMAP
000F
001E
001E
001E
001E
001E
001E
003C
003C
003C
003C
003C
0078
0078
0078
0078
7078
F078
F0F0
F9F0
7FE0
7FE0
3FC0
1F80
ENDCHAR

STARTCHAR K
ENCODING 75
SWIDTH 592 0
DWIDTH 20 0
BBX 21 24 1 0
BITMAP
0F01F8
0F03F0
0F07E0
0F0FC0
1E1F80
1E1F00
1E3E00
1E7C00
1EF800
1CF000
3FF800
3FF800
3FF800
3F3C00
3E3C00
3C3E00
781E00
781F00
780F00
780F80
780780
780780
F007C0
F003C0
ENDCHAR

STARTCHAR L
ENCODING 76
SWIDTH 501 0
DWIDTH 17 0
BBX 15 24 1 0
BITMAP
0F00
0F00
0F00
0F00
1E00
1E00
1E00
1E00
1E00
1E00
3C00
3C00
3C00
3C00
3C00
3C00
7800
7800
7800
7800
7FFE
7FFC
FFFC
FFFC
ENDCHAR

STARTCHAR M
ENCODING 77
SWIDTH 683 0
DWIDTH 23 0
BBX 23 24 1 0
BITMAP
0FC07E
0FC0FE
0FC0FC
0FC0FC
1EC1EC
1EC1DC
1DC3DC
1DC3DC
1DC3B8
1DC7B8
3DC738
3DCF78
39CF78
39CE70
39DE70
79DC70
79DCF0
79FCF0
79F8F0
71F8E0
71F8E0
F1F0E0
F1F1E0
F1E1E0
ENDCHAR

STARTCHAR N
ENCODING 78
SWIDTH 592 0
DWIDTH 20 0
BBX 20 24 1 0
BITMAP
0F00F0
0F80F0
0F80E0
0F81E0
0FC1E0
1FC1E0
1FC1E0
1FE1E0
1EE1C0
1DE3C0
1CF3C0
3CF3C0
3CF3C0
3C7B80
3C7B80
387B80
383F80
783F80
783F80
781F00
781F00
701F00
700F00
F00F00
ENDCHAR

STARTCHAR O
ENCODING 79
SWIDTH 638 0
DWIDTH 21 0
BBX 19 24 2 0
BITMAP
00FC00
03FF00
07FF80
0FFF80
1F87C0
3E03C0
3C03E0
7C01E0
7801E0
7801E0
F801E0
F001E0
F001E0
F001E0
F003C0
F003C0
F007C0
F80780
780F80
7E3F00
3FFE00
3FFC00
1FF800
07E000
ENDCHAR

STARTCHAR P
ENCODING 80
SWIDTH 547 0
DWIDTH 18 0
BBX 18 24 1 0
BITMAP
0FFE00
0FFF00
0FFF80
0FFFC0
1E07C0
1E03C0
1E03C0
1E03C0
1E03C0
3E0780
3C1F80
3FFF80
3FFF00
3FFE00
3FF800
7C0000
780000
780000
780000
780000
780000
F00000
F00000
F00000
ENDCHAR

STARTCHAR Q
ENCODING 81
SWIDTH 638 0
DWIDTH 21 0
BBX 19 27 2 -3
BITMAP
00FC00
03FF00
07FF80
0FFF80
1F87C0
3E03C0
3C03E0
7C01E0
7801E0
7801E0
F001E0
F001E0
F001E0
F003E0
F003C0
F043C0
F0E7C0
F8F780
787F80
7E3F00
3FFE00
3FFE00
1FFF00
07EF80
000780
000300
000100
ENDCHAR

STARTCHAR R
ENCODING 82
SWIDTH 592 0
DWIDTH 20 0
BBX 19 24 1 0
BITMAP
0FFF00
0FFFC0
0FFFC0
0FFFE0
1E03E0
1E01E0
1E01E0
1E01E0
1E03E0
1E07C0
3FFFC0
3FFF80
3FFF00
3FF800
3C3C00
383C00
781E00
781E00
780F00
780F00
780F00
780F80
F00780
F00780
ENDCHAR

STARTCHAR S
ENCODING 83
SWIDTH 547 0
DWIDTH 18 0
BBX 16 24 2 0
BITMAP
03F0
0FFC
0FFE
1FFE
3E1F
3C0F
3C0F
3C0F
3E00
3F00
1FC0
0FF0
07F8
03FC
00FE
003E
F01E
F01E
F01E
F83E
7FFC
7FF8
3FF0
0FC0
ENDCHAR

STARTCHAR T
ENCODING 84
SWIDTH 501 0
DWIDTH 17 0
BBX 16 24 3 0
BITMAP
7FFF
7FFF
FFFF
FFFF
03C0
03C0
0780
0780
0780
0780
0780
0780
0F00
0F00
0F00
0F00
0F00
0F00
1E00
1E00
1E00
1E00
1E00
1E00
ENDCHAR

STARTCHAR U
ENCODING 85
SWIDTH 592 0
DWIDTH 20 0
BBX 18 24 2 0
BITMAP
1E03C0
1E03C0
3C03C0
3C03C0
3C03C0
3C0780
3C0780
7C0780
780780
780780
780780
780F00
780F00
F80F00
F00F00
F00F00
F01E00
F01E00
F03E00
F87C00
7FFC00
3FF800
3FF000
0FC000
ENDCHAR

STARTCHAR V
ENCODING 86
SWIDTH 547 0
DWIDTH 18 0
BBX 19 24 3 0
BITMAP
F003E0
F003C0
F00780
780780
780780
780F00
780F00
781E00
781E00
783C00
3C3C00
3C7800
3C7800
3C7000
3CF000
3CF000
3DE000
1DE000
1FC000
1FC000
1F8000
1F8000
1F0000
0F0000
ENDCHAR

STARTCHAR W
ENCODING 87
SWIDTH 774 0
DWIDTH 26 0
BBX 26 24 3 0
BITMAP
F01E03C0
F03E0780
F03E0780
F07E0780
F07E0F00
F07E0F00
F0FE1E00
F0F61E00
F1EE1E00
F1EE3C00
F1CE3C00
F3CE3800
F3CF7800
778F7800
778F7000
770F7000
770F6000
7F0FE000
7E0FE000
7E0FC000
7C0FC000
7C0F8000
780F8000
780F8000
ENDCHAR

STARTCHAR X
ENCODING 88
SWIDTH 547 0
DWIDTH 18 0
BBX 22 24 -1 0
BITMAP
0F007C
0F80F8
0781F8
07C1F0
03C3E0
03C7C0
01E7C0
01EF80
01FF00
00FF00
00FE00
007C00
00F800
00FC00
01FC00
03FE00
07EE00
07DE00
0F9F00
1F8F00
1F0F80
3E0780
7C07C0
FC03C0
ENDCHAR

STARTCHAR Y
ENCODING 89
SWIDTH 547 0
DWIDTH 18 0
BBX 18 24 3 0
BITMAP
F807C0
780780
780F80
7C0F00
3C1F00
3C1E00
3E3C00
1E7C00
1E7800
0F7800
0FF000
0FE000
07E000
07C000
07C000
078000
078000
078000
078000
078000
0F0000
0F0000
0F0000
0F0000
ENDCHAR

STARTCHAR Z
ENCODING 90
SWIDTH 501 0
DWIDTH 17 0
BBX 17 24 1 0
BITMAP
1FFF80
1FFF80
1FFF80
3FFF00
001F00
003E00
003E00
007C00
00F800
00F000
01F000
03E000
03C000
07C000
0F8000
1F0000
1F0000
3E0000
7C0000
780000
FFFE00
FFFE00
FFFE00
FFFE00
ENDCHAR

STARTCHAR bracketleft
ENCODING 91
SWIDTH 273 0
DWIDTH 9 0
BBX 12 30 0 -6
BITMAP
07F0
07F0
07E0
0700
0700
0F00
0F00
0F00
0F00
0E00
0E00
1E00
1E00
1E00
1E00
1C00
1C00
3C00
3C00
3C00
3C00
3800
3800
7800
7800
7800
7000
7E00
7E00
FE00
ENDCHAR

STARTCHAR backslash
ENCODING 92
SWIDTH 228 0
DWIDTH 8 0
BBX 6 25 2 -1
BITMAP
E0
E0
E0
60
60
60
70
70
70
70
70
30
30
30
38
38
38
38
38
38
18
18
1C
1C
1C
ENDCHAR

STARTCHAR bracketright
ENCODING 93
SWIDTH 273 0
DWIDTH 9 0
BBX 11 30 -1 -6
BITMAP
0FE0
0FE0
0FE0
01E0
01C0
01C0
03C0
03C0
03C0
03C0
0380
0380
0780
0780
0780
0700
0700
0700
0F00
0F00
0F00
0E00
0E00
0E00
1E00
1E00
1E00
FC00
FC00
FC00
ENDCHAR

STARTCHAR asciicircum
ENCODING 94
SWIDTH 479 0
DWIDTH 16 0
BBX 12 13 2 11
BITMAP
0F00
0F00
0F00
1F80
1F80
3D80
3BC0
39C0
79E0
71E0
F0E0
F0F0
F0F0
ENDCHAR

STARTCHAR underscore
ENCODING 95
SWIDTH 456 0
DWIDTH 15 0
BBX 17 2 -1 -4
BITMAP
FFFF80
FFFF80
ENDCHAR

STARTCHAR quoteleft
ENCODING 96
SWIDTH 228 0
DWIDTH 8 0
BBX 5 10 3 14
BITMAP
08
38
38
70
60
60
F0
F0
F0
F0
ENDCHAR

STARTCHAR a
ENCODING 97
SWIDTH 456 0
DWIDTH 15 0
BBX 14 17 1 0
BITMAP
07F0
0FF8
1FFC
3C3C
3C3C
003C
007C
1FFC
3FF8
7E78
F878
F078
F0F8
F9F0
7FF0
7F70
3E78
ENDCHAR

STARTCHAR b
ENCODING 98
SWIDTH 501 0
DWIDTH 17 0
BBX 15 24 1 0
BITMAP
0E00
1E00
1E00
1E00
1E00
1E00
3C00
3DF8
3DF8
3FFC
3E3C
3C1E
7C1E
781E
781E
781E
781E
781C
F83C
F83C
FCF8
EFF8
EFF0
E7C0
ENDCHAR

STARTCHAR c
ENCODING 99
SWIDTH 456 0
DWIDTH 15 0
BBX 14 17 2 0
BITMAP
07E0
1FF0
3FF8
3E78
7C3C
7830
F800
F000
F000
F000
F040
F078
F8F0
7FF0
7FE0
3FC0
0F00
ENDCHAR

STARTCHAR d
ENCODING 100
SWIDTH 501 0
DWIDTH 17 0
BBX 17 24 1 0
BITMAP
000780
000700
000F00
000F00
000F00
000F00
000F00
0FCE00
1FFE00
3FFE00
3C7E00
783E00
783E00
703C00
F03C00
F03C00
F03C00
F03C00
F07800
F07800
78F800
7FF800
3FB800
1F7800
ENDCHAR

STARTCHAR e
ENCODING 101
SWIDTH 456 0
DWIDTH 15 0
BBX 13 17 2 0
BITMAP
07C0
1FF0
3FF0
3C78
7838
7838
7038
FFF8
FFF8
FFF8
F000
F000
7078
78F0
3FE0
3FC0
0F80
ENDCHAR

STARTCHAR f
ENCODING 102
SWIDTH 273 0
DWIDTH 9 0
BBX 12 24 1 0
BITMAP
07F0
07F0
0FE0
0F20
0F00
0E00
1E00
7FC0
7FC0
7F80
1E00
1C00
3C00
3C00
3C00
3C00
3C00
3800
7800
7800
7800
7800
7000
F000
ENDCHAR

STARTCHAR g
ENCODING 103
SWIDTH 501 0
DWIDTH 17 0
BBX 16 24 0 -7
BITMAP
07C7
0FE7
1FF7
1E3F
3C1F
3C1E
381E
781E
781E
781E
781E
783C
783C
3CFC
3FFC
1FDC
0F3C
0038
E078
F878
78F8
7FF0
3FE0
1FC0
ENDCHAR

STARTCHAR h
ENCODING 104
SWIDTH 501 0
DWIDTH 17 0
BBX 15 24 1 0
BITMAP
0F00
0F00
0F00
0E00
1E00
1E00
1E00
1EFC
1EFC
1FFE
3F1E
3E1E
3C1E
3C1E
3C1E
781C
783C
783C
783C
783C
7038
F078
F078
F078
ENDCHAR

STARTCHAR i
ENCODING 105
SWIDTH 228 0
DWIDTH 8 0
BBX 8 24 1 0
BITMAP
0F
0F
0E
1E
00
00
00
1E
1E
1C
3C
3C
3C
3C
38
78
78
78
78
78
70
F0
F0
F0
ENDCHAR

STARTCHAR j
ENCODING 106
SWIDTH 228 0
DWIDTH 8 0
BBX 12 31 -3 -7
BITMAP
00F0
00F0
00F0
01E0
0000
0000
0000
01E0
01E0
01C0
03C0
03C0
03C0
03C0
03C0
0380
0780
0780
0780
0780
0780
0700
0F00
0F00
0F00
0F00
1E00
FE00
FE00
FC00
F800
ENDCHAR

STARTCHAR k
ENCODING 107
SWIDTH 456 0
DWIDTH 15 0
BBX 16 24 1 0
BITMAP
0F00
0F00
0F00
0E00
1E00
1E00
1E00
1E3F
1E3C
1C7C
3CF8
3DF0
3DE0
3FC0
3FC0
7FE0
7EE0
7CE0
78F0
78F0
70F0
F070
F078
F078
ENDCHAR

STARTCHAR l
ENCODING 108
SWIDTH 228 0
DWIDTH 8 0
BBX 8 24 1 0
BITMAP
0F
0F
0E
1E
1E
1E
1E
1E
1C
3C
3C
3C
3C
3C
38
78
78
78
78
78
70
F0
F0
F0
ENDCHAR

STARTCHAR m
ENCODING 109
SWIDTH 729 0
DWIDTH 24 0
BBX 23 17 1 0
BITMAP
1E787C
1EFDFC
1FFDFE
1F3F1E
1E1E1E
3C1E1E
3C3C1E
3C3C1C
3C3C3C
383C3C
783C3C
78383C
78783C
787838
787878
707878
F07878
ENDCHAR

STARTCHAR n
ENCODING 110
SWIDTH 501 0
DWIDTH 17 0
BBX 15 17 1 0
BITMAP
1E78
1DFC
1FFE
3F1E
3E1E
3C1E
3C1E
3C1E
381C
783C
783C
783C
783C
7038
F078
F078
F078
ENDCHAR

STARTCHAR o
ENCODING 111
SWIDTH 501 0
DWIDTH 17 0
BBX 15 17 1 0
BITMAP
07F0
1FF8
3FFC
3E3C
7C1E
781E
F01E
F01E
F01E
F01E
F03E
F03C
787C
7FF8
3FF0
1FE0
0780
ENDCHAR

STARTCHAR p
ENCODING 112
SWIDTH 501 0
DWIDTH 17 0
BBX 17 24 0 -7
BITMAP
0F7C00
0F7E00
0FFF00
0F8F00
0F0780
1F0780
1E0780
1E0780
1E0780
1E0780
1E0700
3E0F00
3E0F00
3F3E00
3FFE00
3BFC00
39F800
780000
780000
780000
780000
700000
700000
F00000
ENDCHAR

STARTCHAR q
ENCODING 113
SWIDTH 501 0
DWIDTH 17 0
BBX 16 24 1 -7
BITMAP
0FCF
1FEE
3FEE
3E7E
783E
783E
703C
F03C
F03C
F03C
F03C
F07C
F078
79F8
7FF8
3FB8
1F78
0078
00F0
00F0
00F0
00F0
00F0
00F0
ENDCHAR

STARTCHAR r
ENCODING 114
SWIDTH 319 0
DWIDTH 11 0
BBX 12 17 1 0
BITMAP
1CF0
1DE0
3DE0
3DE0
3F00
3E00
3C00
3C00
7800
7800
7800
7800
7800
7000
F000
F000
F000
ENDCHAR

STARTCHAR s
ENCODING 115
SWIDTH 456 0
DWIDTH 15 0
BBX 15 17 0 0
BITMAP
03F0
0FFC
1FFC
3C3E
3C1C
3C00
3F80
1FE0
0FF8
07FC
00FC
103C
F03C
787C
7FF8
3FF0
0FC0
ENDCHAR

STARTCHAR t
ENCODING 116
SWIDTH 273 0
DWIDTH 9 0
BBX 8 23 2 0
BITMAP
02
06
0E
1E
1C
3C
FF
FF
FF
38
78
78
78
78
78
70
F0
F0
F0
FE
FC
7C
3C
ENDCHAR

STARTCHAR u
ENCODING 117
SWIDTH 501 0
DWIDTH 17 0
BBX 15 17 2 0
BITMAP
3C1E
3C1E
3C1E
381C
783C
783C
783C
783C
7838
7078
F078
F078
F0F8
F9F8
FFB0
7F70
3CF0
ENDCHAR

STARTCHAR v
ENCODING 118
SWIDTH 456 0
DWIDTH 15 0
BBX 15 17 2 0
BITMAP
F01E
F03C
F03C
7078
7078
78F0
78F0
79E0
79C0
3BC0
3B80
3F80
3F00
3F00
3E00
1E00
1C00
ENDCHAR

STARTCHAR w
ENCODING 119
SWIDTH 638 0
DWIDTH 21 0
BBX 21 17 2 0
BITMAP
E0F078
E0F0F0
F0F0F0
F1F0E0
F1F1E0
F3F1C0
73B3C0
73B3C0
77B380
773780
773B00
7E3F00
7E3F00
7E3E00
7C3E00
7C3C00
383C00
ENDCHAR

STARTCHAR x
ENCODING 120
SWIDTH 456 0
DWIDTH 15 0
BBX 17 17 0 0
BITMAP
3E0F80
1E1F00
1F3E00
0F7C00
0F7800
07F800
07F000
03E000
03C000
07C000
0FE000
1FE000
1EF000
3EF000
7C7800
F87800
F03C00
ENDCHAR

STARTCHAR y
ENCODING 121
SWIDTH 456 0
DWIDTH 15 0
BBX 17 24 0 -7
BITMAP
3C0780
1C0F00
1C0F00
1E1E00
1E1E00
1E3C00
1E3C00
1E3800
0E7800
0E7800
0EF000
0EF000
0EE000
0FE000
0FC000
07C000
078000
078000
0F0000
1F0000
7E0000
FE0000
FC0000
780000
ENDCHAR

STARTCHAR z
ENCODING 122
SWIDTH 410 0
DWIDTH 14 0
BBX 14 17 0 0
BITMAP
1FFC
1FFC
1FFC
3F78
00F0
01F0
01E0
03C0
0780
0F80
1F00
1E00
3C00
7FF8
7FF0
7FF0
FFF0
ENDCHAR

STARTCHAR braceleft
ENCODING 123
SWIDTH 319 0
DWIDTH 11 0
BBX 12 31 2 -7
BITMAP
00F0
03E0
03E0
07E0
0780
0700
0F00
0F00
0E00
0E00
0E00
1E00
1C00
FC00
F800
F000
F800
F800
7800
3800
3800
3800
3800
3800
7800
7800
7800
7E00
7E00
3E00
1E00
ENDCHAR

STARTCHAR bar
ENCODING 124
SWIDTH 230 0
DWIDTH 8 0
BBX 3 31 3 -7
BITMAP
E0
E0
E0
E0
E0
E0
E0
E0
E0
E0
E0
E0
E0
E0
E0
E0
E0
E0
E0
E0
E0
E0
E0
E0
E0
E0
E0
E0
E0
E0
E0
ENDCHAR

STARTCHAR braceright
ENCODING 125
SWIDTH 319 0
DWIDTH 11 0
BBX 13 31 -2 -7
BITMAP
0780
07C0
07E0
07E0
01E0
01E0
01E0
01C0
01C0
01C0
01C0
01C0
01E0
01F8
01F0
00F0
01F0
03E0
03C0
0780
0780
0700
0700
0F00
0F00
0F00
1E00
7E00
7E00
7C00
F000
ENDCHAR

STARTCHAR asciitilde
ENCODING 126
SWIDTH 479 0
DWIDTH 16 0
BBX 14 6 2 9
BITMAP
3C04
FF8C
FFFC
FFFC
C3F8
80F0
ENDCHAR

STARTCHAR space
ENCODING 160
SWIDTH 228 0
DWIDTH 9 0
BBX 0 0 0 0
BITMAP
ENDCHAR

STARTCHAR Aogonek
ENCODING 161
SWIDTH 592 0
DWIDTH 20 0
BBX 20 31 0 -7
BITMAP
001E00
003F00
003F00
007F00
007F00
00F700
00F700
00E700
01E700
01E780
03C780
03C780
078780
078780
0F0380
0FFF80
1FFFC0
1FFFC0
3FFFC0
3C03C0
7C03C0
7803C0
7801C0
F001C0
000100
000300
000300
000300
0003B0
0003E0
0001E0
ENDCHAR

STARTCHAR afii240
ENCODING 162
SWIDTH 556 0
DWIDTH 18 0
BBX 19 17 1 0
BITMAP
0F87E0
0F0FC0
1F1F80
1F3F00
1F7C00
1EF000
1FF800
3FF800
3FF800
3FBC00
3F3C00
7C3C00
7C3E00
7C3E00
781E00
781F00
F81F00
ENDCHAR

STARTCHAR Rcommaaccent
ENCODING 163
SWIDTH 592 0
DWIDTH 20 0
BBX 19 31 1 -7
BITMAP
0FFF00
0FFFC0
0FFFC0
0FFFE0
1E03E0
1E01E0
1E01E0
1E01E0
1E03E0
1E07C0
3FFFC0
3FFF80
3FFF00
3FF800
3C3C00
383C00
781E00
781E00
780F00
780F00
780F00
780F80
F00780
F00780
000000
000000
038000
038000
010000
070000
060000
ENDCHAR

STARTCHAR currency
ENCODING 164
SWIDTH 456 0
DWIDTH 15 0
BBX 14 16 2 4
BITMAP
2010
77B8
FFFC
7FF8
7FF0
7878
7838
7038
7038
7878
7878
3FF8
7FF8
FFFC
77B8
2010
ENDCHAR

STARTCHAR Itilde
ENCODING 165
SWIDTH 228 0
DWIDTH 8 0
BBX 11 30 1 0
BITMAP
0C60
1FE0
3FC0
31C0
0000
0000
0F00
0F00
0F00
1E00
1E00
1E00
1E00
1E00
1E00
3C00
3C00
3C00
3C00
3C00
7800
7800
7800
7800
7800
7800
F000
F000
F000
F000
ENDCHAR

STARTCHAR Lcommaaccent
ENCODING 166
SWIDTH 501 0
DWIDTH 17 0
BBX 15 31 1 -7
BITMAP
0F00
0F00
0F00
0F00
1E00
1E00
1E00
1E00
1E00
1E00
3C00
3C00
3C00
3C00
3C00
3C00
7800
7800
7800
7800
7FFE
7FFC
FFFC
FFFC
0000
0000
0F00
0E00
0600
0E00
0C00
ENDCHAR

STARTCHAR section
ENCODING 167
SWIDTH 456 0
DWIDTH 15 0
BBX 14 31 1 -7
BITMAP
03E0
07F8
0FF8
0F3C
0E3C
0E38
0E00
0F00
0F80
1FC0
3FE0
3BE0
71F0
70F8
7078
7878
7838
3C38
3E38
1F70
0FF0
07E0
03C0
01C0
01E0
E0E0
F0E0
F9E0
7FE0
3FC0
1F80
ENDCHAR

STARTCHAR hungarumlaut
ENCODING 168
SWIDTH 273 0
DWIDTH 9 0
BBX 12 5 1 19
BITMAP
3DF0
39C0
7380
6380
C700
ENDCHAR

STARTCHAR Scaron
ENCODING 169
SWIDTH 547 0
DWIDTH 18 0
BBX 16 30 2 0
BITMAP
038F
01DC
01D8
00F8
00F0
0000
03F0
0FFC
0FFE
1FFE
3E1F
3C0F
3C0F
3C0F
3E00
3F00
1FC0
0FF0
07F8
03FC
00FE
003E
F01E
F01E
F01E
F83E
7FFC
7FF8
3FF0
0FC0
ENDCHAR

STARTCHAR Emacron
ENCODING 170
SWIDTH 547 0
DWIDTH 18 0
BBX 19 30 1 0
BITMAP
00FF00
01FF00
01FF00
000000
000000
000000
0FFFE0
0FFFC0
0FFFC0
0FFFC0
1E0000
1E0000
1E0000
1E0000
1E0000
1FFF80
3FFF00
3FFF00
3FFF00
3C0000
3C0000
380000
780000
780000
780000
780000
7FFF00
7FFF00
FFFF00
FFFE00
ENDCHAR

STARTCHAR Gcommaaccent
ENCODING 171
SWIDTH 638 0
DWIDTH 21 0
BBX 19 31 2 -7
BITMAP
00FC00
03FF00
07FF80
0FFFC0
1F07C0
3E03E0
3C01E0
780180
780000
780000
F00000
F07FC0
F07FC0
F07FC0
F07FC0
F00380
F00380
F80780
780780
7C1F80
3FFF80
3FFF00
1FFC00
07F000
000000
03C000
038000
038000
018000
030000
020000
ENDCHAR

STARTCHAR afii237
ENCODING 172
SWIDTH 611 0
DWIDTH 20 0
BBX 20 24 3 0
BITMAP
3FFFF0
7FFFF0
7FFFF0
7FFFF0
00F800
01F000
01F000
01F000
01F000
01E000
03E000
7FFF80
7FFF00
FFFF00
03C000
07C000
07C000
07C000
07C000
078000
0F8000
0F8000
0F8000
0F8000
ENDCHAR

STARTCHAR hyphen
ENCODING 173
SWIDTH 273 0
DWIDTH 9 0
BBX 8 4 1 7
BITMAP
7F
7F
FF
FF
ENDCHAR

STARTCHAR Zcaron
ENCODING 174
SWIDTH 501 0
DWIDTH 17 0
BBX 17 31 1 0
BITMAP
01CF00
01DE00
00DC00
00F800
00F000
000000
000000
1FFF80
1FFF80
1FFF80
3FFF00
001F00
003E00
003E00
007C00
00F800
00F000
01F000
03E000
03C000
07C000
0F8000
1F0000
1F0000
3E0000
7C0000
780000
FFFE00
FFFE00
FFFE00
FFFE00
ENDCHAR

STARTCHAR macron
ENCODING 175
SWIDTH 273 0
DWIDTH 9 0
BBX 9 3 2 20
BITMAP
7F80
7F80
FF80
ENDCHAR

STARTCHAR degree
ENCODING 176
SWIDTH 328 0
DWIDTH 11 0
BBX 8 11 2 13
BITMAP
3C
7E
7E
E7
C3
C3
C3
E7
7E
7E
18
ENDCHAR

STARTCHAR aogonek
ENCODING 177
SWIDTH 456 0
DWIDTH 15 0
BBX 14 24 1 -7
BITMAP
07F0
0FF8
1FFC
3C3C
3C3C
003C
007C
1FF8
3FF8
7E78
F078
F0F8
F0F8
F9F0
7FF0
7F78
3E78
0040
00C0
00C0
00C0
00EC
00F8
0078
ENDCHAR

STARTCHAR ogonek
ENCODING 178
SWIDTH 273 0
DWIDTH 9 0
BBX 6 8 2 -7
BITMAP
60
C0
C0
C0
C0
FC
F8
78
ENDCHAR

STARTCHAR rcommaaccent
ENCODING 179
SWIDTH 319 0
DWIDTH 11 0
BBX 12 24 1 -7
BITMAP
1CF0
1DE0
3DE0
3DE0
3F00
3E00
3C00
3C00
7800
7800
7800
7800
7800
7000
F000
F000
F000
0000
0000
7800
7000
3000
7000
6000
ENDCHAR

STARTCHAR acute
ENCODING 180
SWIDTH 273 0
DWIDTH 9 0
BBX 7 5 5 19
BITMAP
3E
38
70
70
E0
ENDCHAR

STARTCHAR itilde
ENCODING 181
SWIDTH 228 0
DWIDTH 8 0
BBX 10 23 1 0
BITMAP
18C0
3FC0
7F80
6300
0000
0000
1E00
1E00
1C00
3C00
3C00
3C00
3C00
3800
7800
7800
7800
7800
7800
7000
F000
F000
F000
ENDCHAR

STARTCHAR lcommaaccent
ENCODING 182
SWIDTH 228 0
DWIDTH 8 0
BBX 9 31 0 -7
BITMAP
0780
0780
0700
0F00
0F00
0F00
0F00
0F00
0E00
1E00
1E00
1E00
1E00
1E00
1C00
3C00
3C00
3C00
3C00
3C00
3800
7800
7800
7800
0000
0000
7000
7000
3000
E000
C000
ENDCHAR

STARTCHAR caron
ENCODING 183
SWIDTH 273 0
DWIDTH 9 0
BBX 9 5 3 19
BITMAP
E380
E700
7600
7C00
7800
ENDCHAR

STARTCHAR commaaccent
ENCODING 184
SWIDTH 333 0
DWIDTH 11 0
BBX 4 5 3 -7
BITMAP
70
70
30
60
C0
ENDCHAR

STARTCHAR scaron
ENCODING 185
SWIDTH 456 0
DWIDTH 15 0
BBX 15 24 0 0
BITMAP
038E
039C
01D8
01F8
01F0
0000
0000
07F0
0FFC
1FFC
3C3E
3C1C
3E00
3F80
1FF0
0FF8
07FC
00FC
103C
F03C
787C
7FF8
3FF0
0FC0
ENDCHAR

STARTCHAR emacron
ENCODING 186
SWIDTH 456 0
DWIDTH 15 0
BBX 13 23 2 0
BITMAP
07F8
07F8
07F8
0000
0000
0000
07E0
1FF0
3FF0
3C78
7838
7838
7038
FFF8
FFF8
FFF8
F000
F000
7078
78F0
3FE0
3FC0
0F80
ENDCHAR

STARTCHAR gcommaaccent
ENCODING 187
SWIDTH 501 0
DWIDTH 17 0
BBX 16 32 0 -7
BITMAP
0010
0060
00E0
00C0
00E0
00E0
0000
0000
07C7
0FE7
1FF7
1E3F
3C1F
3C1E
381E
781E
781E
781E
781E
783C
783C
3CFC
3FFC
1FDC
0F3C
0038
E078
F878
78F0
7FF0
3FE0
1FC0
ENDCHAR

STARTCHAR afii253
ENCODING 188
SWIDTH 333 0
DWIDTH 11 0
BBX 12 23 1 0
BITMAP
0020
00C0
03C0
07C0
07C0
07C0
3FF0
3FF0
3FF0
0F80
0F80
0F00
1F00
7FE0
FFE0
FFE0
1E00
3E00
3E00
3E00
3FC0
3FC0
1F80
ENDCHAR

STARTCHAR afii238
ENCODING 189
SWIDTH 723 0
DWIDTH 24 0
BBX 23 24 1 0
BITMAP
07C7E0
07CFF8
07BFFC
0FBFFC
0FF07E
0FE03E
0FC03E
0F803E
1F003E
1F003E
1F003E
1F003E
1E007C
3E007C
3E007C
3E007C
3E00F8
7C00F8
7C01F8
7C11F0
7C3FF0
7C7FE0
F87FC0
F81F00
ENDCHAR

STARTCHAR zcaron
ENCODING 190
SWIDTH 410 0
DWIDTH 14 0
BBX 15 24 0 0
BITMAP
039E
03BC
01B8
01F0
01E0
0000
0000
1FFC
1FFC
1FFC
3F78
00F0
01F0
01E0
03C0
0780
0F80
1F00
1E00
3C00
7FF8
7FF0
7FF0
FFF0
ENDCHAR

STARTCHAR afii254
ENCODING 191
SWIDTH 611 0
DWIDTH 20 0
BBX 18 24 2 -7
BITMAP
1F3F00
1EFF80
1FFFC0
1FC7C0
3F07C0
3E07C0
3E07C0
3C0780
7C0F80
7C0F80
7C0F80
7C0F00
780F00
F81F00
F81F00
F81F00
F01E00
003E00
003E00
007E00
03FC00
03FC00
03F800
03F000
ENDCHAR

STARTCHAR Amacron
ENCODING 192
SWIDTH 592 0
DWIDTH 20 0
BBX 18 29 0 0
BITMAP
007FC0
007FC0
007F80
000000
000000
001E00
003E00
003E00
007F00
007F00
00F700
00F700
01E700
01E700
03C700
03C780
07C780
078780
078780
0F0780
0FFF80
1FFF80
1FFFC0
3FFFC0
3C03C0
7803C0
7803C0
F803C0
F003C0
ENDCHAR

STARTCHAR Aacute
ENCODING 193
SWIDTH 592 0
DWIDTH 20 0
BBX 18 31 0 0
BITMAP
0003C0
000380
000700
000F00
001E00
000000
000000
001E00
003E00
003E00
007F00
007F00
00F700
00F700
01E700
01E700
03C700
03C780
07C780
078780
078780
0F0780
0FFF80
1FFF80
1FFFC0
3FFFC0
3C03C0
7803C0
7803C0
F803C0
F003C0
ENDCHAR

STARTCHAR Acircumflex
ENCODING 194
SWIDTH 592 0
DWIDTH 20 0
BBX 18 31 0 0
BITMAP
000F00
001F00
003B00
007380
00F380
000000
000000
001E00
003E00
003E00
007F00
007F00
00F700
00F700
01E700
01E700
03C700
03C780
07C780
078780
078780
0F0780
0FFF80
1FFF80
1FFFC0
3FFFC0
3C03C0
7803C0
7803C0
F803C0
F003C0
ENDCHAR

STARTCHAR Atilde
ENCODING 195
SWIDTH 592 0
DWIDTH 20 0
BBX 18 30 0 0
BITMAP
0038C0
003FC0
007F80
006380
000000
000000
001E00
003E00
003E00
007F00
007F00
00F700
00F700
01E700
01E700
03C700
03C780
07C780
078780
078780
0F0780
0FFF80
1FFF80
1FFFC0
3FFFC0
3C03C0
7803C0
7803C0
F803C0
F003C0
ENDCHAR

STARTCHAR Adieresis
ENCODING 196
SWIDTH 592 0
DWIDTH 20 0
BBX 18 30 0 0
BITMAP
0079C0
0071C0
0071C0
0073C0
000000
000000
001E00
003E00
003E00
007F00
007F00
00F700
00F700
01E700
01E700
03C700
03C780
07C780
078780
078780
0F0780
0FFF80
1FFF80
1FFFC0
3FFFC0
3C03C0
7803C0
7803C0
F803C0
F003C0
ENDCHAR

STARTCHAR Aring
ENCODING 197
SWIDTH 592 0
DWIDTH 20 0
BBX 19 31 0 0
BITMAP
000E00
001F00
001900
001900
001F00
000E00
000000
001F00
003F00
003F00
007F00
007F00
007B00
00F780
00F780
01E780
01E780
03C780
03C780
078380
0783C0
0F03C0
0FFFC0
1FFFC0
1FFFC0
3FFFC0
3C03C0
3C01C0
7801E0
7801E0
F001E0
ENDCHAR

STARTCHAR AE
ENCODING 198
SWIDTH 820 0
DWIDTH 27 0
BBX 30 24 -1 0
BITMAP
001FFFFC
001FFFF8
003FFFF8
003FFFF8
0078E000
0078E000
00F1E000
00F1E000
01E1E000
01E1E000
03E1FFF0
03C1FFE0
07C3FFE0
0783FFE0
07FFC000
0FFFC000
0FFF8000
1FFF8000
1E078000
3C078000
3C07FFE0
7807FFE0
7807FFE0
F00FFFC0
ENDCHAR

STARTCHAR Iogonek
ENCODING 199
SWIDTH 228 0
DWIDTH 8 0
BBX 9 31 0 -7
BITMAP
0780
0780
0F00
0F00
0F00
0F00
0F00
0F00
1E00
1E00
1E00
1E00
1E00
3C00
3C00
3C00
3C00
3C00
3C00
7800
7800
7800
7800
7800
4000
C000
C000
C000
EC00
F800
7800
ENDCHAR

STARTCHAR Ccaron
ENCODING 200
SWIDTH 592 0
DWIDTH 20 0
BBX 18 31 3 0
BITMAP
01C700
00CE00
00EC00
00FC00
007800
000000
000000
01FC00
07FE00
0FFF00
1FFF80
3F0F80
3E0780
7C07C0
7803C0
780000
780000
F00000
F00000
F00000
F00000
F00000
F00C00
F00F80
F80F00
781F00
7C3E00
7FFC00
3FFC00
1FF000
07C000
ENDCHAR

STARTCHAR Eacute
ENCODING 201
SWIDTH 547 0
DWIDTH 18 0
BBX 19 31 1 0
BITMAP
000F80
000F00
001E00
001C00
003800
000000
000000
0FFFE0
0FFFC0
0FFFC0
0FFFC0
1E0000
1E0000
1E0000
1E0000
1E0000
1FFF80
3FFF00
3FFF00
3FFF00
3C0000
3C0000
380000
780000
780000
780000
780000
7FFF00
7FFF00
FFFF00
FFFE00
ENDCHAR

STARTCHAR Eogonek
ENCODING 202
SWIDTH 547 0
DWIDTH 18 0
BBX 18 31 1 -7
BITMAP
0FFFC0
0FFFC0
0FFFC0
1FFFC0
1E0000
1E0000
1E0000
1E0000
3E0000
3C0000
3FFF00
3FFF00
3FFF00
3FFF00
7C0000
780000
780000
780000
780000
780000
FFFF00
FFFE00
FFFE00
FFFE00
002000
006000
006000
006000
007600
007C00
003C00
ENDCHAR

STARTCHAR Edieresis
ENCODING 203
SWIDTH 547 0
DWIDTH 18 0
BBX 19 30 1 0
BITMAP
00E780
00E700
01E700
01C700
000000
000000
0FFFE0
0FFFC0
0FFFC0
0FFFC0
1E0000
1E0000
1E0000
1E0000
1E0000
1FFF80
3FFF00
3FFF00
3FFF00
3C0000
3C0000
380000
780000
780000
780000
780000
7FFF00
7FFF00
FFFF00
FFFE00
ENDCHAR

STARTCHAR Edotaccent
ENCODING 204
SWIDTH 547 0
DWIDTH 18 0
BBX 19 30 1 0
BITMAP
003C00
003800
007800
007800
000000
000000
0FFFE0
0FFFC0
0FFFC0
0FFFC0
1E0000
1E0000
1E0000
1E0000
1E0000
1FFF80
3FFF00
3FFF00
3FFF00
3C0000
3C0000
380000
780000
780000
780000
780000
7FFF00
7FFF00
FFFF00
FFFE00
ENDCHAR

STARTCHAR Iacute
ENCODING 205
SWIDTH 228 0
DWIDTH 8 0
BBX 11 31 1 0
BITMAP
01E0
01C0
0380
0780
0F00
0000
0000
0F00
0F00
0F00
1E00
1E00
1E00
1E00
1E00
1E00
3C00
3C00
3C00
3C00
3C00
7800
7800
7800
7800
7800
7800
F000
F000
F000
F000
ENDCHAR

STARTCHAR Icircumflex
ENCODING 206
SWIDTH 228 0
DWIDTH 8 0
BBX 10 31 1 0
BITMAP
0F80
0F80
1D80
39C0
79C0
0000
0000
0F00
0F00
0F00
1E00
1E00
1E00
1E00
1E00
3E00
3C00
3C00
3C00
3C00
3C00
7800
7800
7800
7800
7800
7800
F000
F000
F000
F000
ENDCHAR

STARTCHAR Imacron
ENCODING 207
SWIDTH 228 0
DWIDTH 8 0
BBX 11 29 1 0
BITMAP
3FE0
3FC0
3FC0
0000
0000
0F00
0F00
0F00
1E00
1E00
1E00
1E00
1E00
1E00
3C00
3C00
3C00
3C00
3C00
7800
7800
7800
7800
7800
7800
F000
F000
F000
F000
ENDCHAR

STARTCHAR Eth
ENCODING 208
SWIDTH 592 0
DWIDTH 20 0
BBX 19 24 1 0
BITMAP
07FC00
0FFF00
0FFF80
0FFFC0
0F07C0
0F03C0
0F01E0
1E01E0
1E01E0
1E01E0
1E01E0
7FE1E0
7FE1E0
FFE1E0
3C03E0
3C03C0
3C03C0
3C07C0
3C0F80
781F80
7FFF00
7FFE00
7FFC00
7FE000
ENDCHAR

STARTCHAR Ncommaaccent
ENCODING 209
SWIDTH 592 0
DWIDTH 20 0
BBX 20 31 1 -7
BITMAP
0F00F0
0F80F0
0F80E0
0F81E0
0FC1E0
1FC1E0
1FC1E0
1FE1E0
1EE1C0
1DE3C0
1CF3C0
3CF3C0
3CF3C0
3C7B80
3C7B80
387B80
383F80
783F80
783F80
781F00
781F00
701F00
700F00
F00F00
000000
000000
038000
038000
018000
030000
060000
ENDCHAR

STARTCHAR Omacron
ENCODING 210
SWIDTH 638 0
DWIDTH 21 0
BBX 19 29 2 0
BITMAP
00FF00
00FF00
01FF00
000000
000000
00FC00
03FF00
0FFF80
1FFF80
1F87C0
3E03C0
3C03E0
7C01E0
7801E0
7801E0
F001E0
F001E0
F001E0
F003E0
F003C0
F003C0
F007C0
F80780
780F80
7E3F00
3FFE00
3FFC00
0FF800
07E000
ENDCHAR

STARTCHAR Kcommaaccent
ENCODING 211
SWIDTH 592 0
DWIDTH 20 0
BBX 21 31 1 -7
BITMAP
0F01F8
0F03F0
0F07E0
0F0FC0
1E1F80
1E1F00
1E3E00
1E7C00
1EF800
1CF000
3FF800
3FF800
3FF800
3F3C00
3E3C00
3C3E00
781E00
781F00
780F00
780F80
780780
780780
F007C0
F003C0
000000
000000
038000
038000
018000
030000
060000
ENDCHAR

STARTCHAR Ocircumflex
ENCODING 212
SWIDTH 638 0
DWIDTH 21 0
BBX 19 31 2 0
BITMAP
003C00
007E00
007600
00EE00
01C700
000000
000000
01FC00
03FF00
0FFF80
1FFFC0
1F87C0
3E03C0
3C03E0
7C01E0
7801E0
7801E0
F001E0
F001E0
F001E0
F003E0
F003C0
F003C0
F007C0
F80780
780F80
7E3F00
3FFE00
3FFC00
0FF800
07E000
ENDCHAR

STARTCHAR Otilde
ENCODING 213
SWIDTH 638 0
DWIDTH 21 0
BBX 19 30 2 0
BITMAP
007180
00FF00
00FF00
008600
000000
000000
00FC00
03FF00
0FFF80
1FFF80
1F87C0
3E03C0
3C03E0
7C01E0
7801E0
7801E0
F001E0
F001E0
F001E0
F003E0
F003C0
F003C0
F007C0
F80780
780F80
7E3F00
3FFE00
3FFC00
0FF800
07E000
ENDCHAR

STARTCHAR Odieresis
ENCODING 214
SWIDTH 638 0
DWIDTH 21 0
BBX 19 30 2 0
BITMAP
00E780
00E780
00E700
01E700
000000
000000
00FC00
03FF00
0FFF80
1FFF80
1F87C0
3E03C0
3C03E0
7C01E0
7801E0
7801E0
F001E0
F001E0
F001E0
F003E0
F003C0
F003C0
F007C0
F80780
780F80
7E3F00
3FFE00
3FFC00
0FF800
07E000
ENDCHAR

STARTCHAR multiply
ENCODING 215
SWIDTH 479 0
DWIDTH 16 0
BBX 12 16 3 4
BITMAP
2020
6060
F0F0
F1F0
F9F0
7FE0
3FC0
1F80
1F80
3F80
3FC0
7DE0
F9F0
F0F0
6060
6040
ENDCHAR

STARTCHAR Oslash
ENCODING 216
SWIDTH 638 0
DWIDTH 21 0
BBX 19 27 2 -2
BITMAP
000040
00FCE0
03FFE0
07FFC0
0FFF80
1F87C0
3E07C0
3C0FE0
7C1DE0
783DE0
7839E0
F871E0
F0F1E0
F0E1E0
F1C1E0
F383C0
F383C0
F707C0
FE0780
7E0F80
7C3F00
3FFE00
7FFC00
7FF800
E7E000
400000
400000
ENDCHAR

STARTCHAR Uogonek
ENCODING 217
SWIDTH 592 0
DWIDTH 20 0
BBX 18 31 2 -7
BITMAP
1E03C0
1E03C0
3C03C0
3C03C0
3C03C0
3C0780
3C0780
7C0780
780780
780780
780780
780F00
780F00
F80F00
F00F00
F00F00
F01E00
F01E00
F03E00
787C00
7FFC00
3FF800
3FF000
0FE000
040000
0C0000
0C0000
0C0000
0EC000
0F8000
078000
ENDCHAR

STARTCHAR Uacute
ENCODING 218
SWIDTH 592 0
DWIDTH 20 0
BBX 18 31 3 0
BITMAP
000F00
001E00
001C00
003800
007800
000000
000000
1E03C0
1E03C0
3C03C0
3C03C0
3C03C0
3C0780
3C0780
7C0780
780780
780780
780780
780F00
780F00
F80F00
F00F00
F00F00
F01E00
F01E00
F03E00
F87C00
7FFC00
7FF800
3FF000
0FC000
ENDCHAR

STARTCHAR Ucircumflex
ENCODING 219
SWIDTH 592 0
DWIDTH 20 0
BBX 18 31 3 0
BITMAP
003C00
007C00
00EC00
01EE00
03CE00
000000
000000
1E03C0
1E03C0
3C03C0
3C03C0
3C03C0
3C0780
3C0780
7C0780
780780
780780
780780
780F00
780F00
F80F00
F00F00
F00F00
F01E00
F01E00
F03E00
F87C00
7FFC00
7FF800
3FF000
0FC000
ENDCHAR

STARTCHAR Udieresis
ENCODING 220
SWIDTH 592 0
DWIDTH 20 0
BBX 18 30 3 0
BITMAP
00E700
01E700
01C700
01C700
000000
000000
1E03C0
1E03C0
3C03C0
3C03C0
3C03C0
3C0780
3C0780
7C0780
780780
780780
780780
780F00
780F00
F80F00
F00F00
F00F00
F01E00
F01E00
F03E00
F87C00
7FFC00
7FF800
3FF000
0FC000
ENDCHAR

STARTCHAR Utilde
ENCODING 221
SWIDTH 592 0
DWIDTH 20 0
BBX 18 30 2 0
BITMAP
00E300
01FE00
01FE00
010C00
000000
000000
1E03C0
1E03C0
3C03C0
3C03C0
3C03C0
3C0780
3C0780
7C0780
780780
780780
780780
780F00
780F00
F80F00
F00F00
F00F00
F01E00
F01E00
F03E00
F87C00
7FFC00
3FF800
3FF000
0FC000
ENDCHAR

STARTCHAR Umacron
ENCODING 222
SWIDTH 592 0
DWIDTH 20 0
BBX 18 29 3 0
BITMAP
01FF00
01FF00
01FE00
000000
000000
1E03C0
1E03C0
3C03C0
3C03C0
3C03C0
3C0780
3C0780
7C0780
780780
780780
780780
780F00
780F00
F80F00
F00F00
F00F00
F01E00
F01E00
F03E00
F87C00
7FFC00
7FF800
3FF000
0FC000
ENDCHAR

STARTCHAR germandbls
ENCODING 223
SWIDTH 501 0
DWIDTH 17 0
BBX 15 24 1 0
BITMAP
01F8
03FC
07FE
0FBE
0F1E
1E1E
1E3E
1E3C
1E78
1E78
3CF0
3CF0
3CF8
3C78
3C7C
383C
781E
781E
781E
791E
7FFE
73FC
F1F8
F0F0
ENDCHAR

STARTCHAR amacron
ENCODING 224
SWIDTH 456 0
DWIDTH 15 0
BBX 14 23 1 0
BITMAP
07FC
07FC
07FC
0000
0000
0000
07F0
1FF8
1FFC
3C3C
3C3C
003C
007C
1FF8
3FF8
7E78
F878
F078
F0F8
F9F0
7FF0
7F78
3E78
ENDCHAR

STARTCHAR aacute
ENCODING 225
SWIDTH 456 0
DWIDTH 15 0
BBX 15 24 1 0
BITMAP
003E
0038
0070
00F0
00E0
0000
0000
07F0
0FF8
1FFC
3C3C
3C3C
003C
007C
1FF8
3FF8
7E78
F878
F078
F0F8
F9F0
7FF0
7F78
3E78
ENDCHAR

STARTCHAR acircumflex
ENCODING 226
SWIDTH 456 0
DWIDTH 15 0
BBX 14 24 1 0
BITMAP
00F0
01F0
03B8
0738
0F38
0000
0000
07F0
0FF8
1FFC
3C3C
3C3C
003C
007C
1FF8
3FF8
7E78
F878
F078
F0F8
F9F0
7FF0
7F78
3E78
ENDCHAR

STARTCHAR atilde
ENCODING 227
SWIDTH 456 0
DWIDTH 15 0
BBX 14 23 1 0
BITMAP
038C
03FC
07FC
0638
0000
0000
07F0
0FF8
1FFC
3C3C
3C3C
003C
007C
1FF8
3FF8
7E78
F878
F078
F0F8
F9F0
7FF0
7F78
3E78
ENDCHAR

STARTCHAR adieresis
ENCODING 228
SWIDTH 456 0
DWIDTH 15 0
BBX 15 24 1 0
BITMAP
079E
079C
071C
071C
0000
0000
0000
07F0
1FF8
1FFC
3C3C
3C3C
003C
007C
1FF8
3FF8
7E78
F878
F078
F0F8
F9F0
7FF0
7F78
3E78
ENDCHAR

STARTCHAR aring
ENCODING 229
SWIDTH 456 0
DWIDTH 15 0
BBX 13 25 1 0
BITMAP
00C0
01E0
0120
0120
0120
01E0
00C0
0000
07E0
0FF0
1FF8
3C78
3C38
0038
00F8
1FF8
3FF8
7E70
F070
F070
F0F0
F9F0
7FF0
7F70
3E70
ENDCHAR

STARTCHAR ae
ENCODING 230
SWIDTH 729 0
DWIDTH 24 0
BBX 22 17 1 0
BITMAP
07E3E0
1FF7F8
3FFFF8
3C7E3C
783C3C
00381C
00F81C
1FFFFC
7FFFFC
FC7FFC
F07800
E0F800
E0F83C
F3DCF8
FF9FF0
7F9FE0
3E0FC0
ENDCHAR

STARTCHAR iogonek
ENCODING 231
SWIDTH 228 0
DWIDTH 8 0
BBX 9 31 0 -7
BITMAP
0780
0F00
0F00
0F00
0000
0000
0000
0E00
1E00
1E00
1E00
1E00
1E00
1C00
3C00
3C00
3C00
3C00
3800
7800
7800
7800
7800
7800
4000
C000
C000
C000
EC00
F800
7800
ENDCHAR

STARTCHAR ccaron
ENCODING 232
SWIDTH 456 0
DWIDTH 15 0
BBX 15 24 2 0
BITMAP
071E
03B8
03B8
01F0
01E0
0000
0000
07E0
1FF0
3FF8
3E78
7C3C
7830
F800
F000
F000
F000
F040
F078
F8F0
7FF0
7FE0
3FC0
0F00
ENDCHAR

STARTCHAR eacute
ENCODING 233
SWIDTH 456 0
DWIDTH 15 0
BBX 14 24 2 0
BITMAP
003C
0078
0070
00E0
01C0
0000
0000
07C0
1FF0
3FF0
3C78
7838
7838
7038
FFF8
FFF8
FFF8
F000
F000
7078
78F0
3FE0
3FC0
0F80
ENDCHAR

STARTCHAR eogonek
ENCODING 234
SWIDTH 456 0
DWIDTH 15 0
BBX 14 24 1 -7
BITMAP
07E0
0FF8
1FF8
3E3C
7C3C
781C
781C
FFFC
FFFC
FFFC
F000
F000
787C
7CF8
3FF0
1FE0
0FC0
0700
0600
0600
0600
0760
07C0
03C0
ENDCHAR

STARTCHAR edieresis
ENCODING 235
SWIDTH 456 0
DWIDTH 15 0
BBX 14 24 2 0
BITMAP
073C
073C
0738
0738
0000
0000
0000
0FE0
1FF0
3FF0
3C78
7838
7838
7038
FFF8
FFF8
FFF8
F000
F000
7078
78F0
3FE0
3FC0
0F80
ENDCHAR

STARTCHAR edotaccent
ENCODING 236
SWIDTH 456 0
DWIDTH 15 0
BBX 13 24 2 0
BITMAP
01E0
01E0
01E0
01C0
0000
0000
0000
07E0
1FF0
3FF0
3C78
7838
7838
7038
FFF8
FFF8
FFF8
F000
F000
7078
78F0
3FE0
3FC0
0F80
ENDCHAR

STARTCHAR iacute
ENCODING 237
SWIDTH 228 0
DWIDTH 8 0
BBX 11 24 1 0
BITMAP
03E0
0380
0780
0700
0E00
0000
0000
1E00
1E00
1C00
3C00
3C00
3C00
3C00
3800
7800
7800
7800
7800
7800
7000
F000
F000
F000
ENDCHAR

STARTCHAR icircumflex
ENCODING 238
SWIDTH 228 0
DWIDTH 8 0
BBX 10 24 1 0
BITMAP
0F00
1F00
3D80
7B80
F1C0
0000
0000
1E00
1E00
1C00
3C00
3C00
3C00
3C00
3800
7800
7800
7800
7800
7800
7000
F000
F000
F000
ENDCHAR

STARTCHAR imacron
ENCODING 239
SWIDTH 228 0
DWIDTH 8 0
BBX 10 23 1 0
BITMAP
3FC0
7FC0
7FC0
0000
0000
0000
1E00
1E00
1C00
3C00
3C00
3C00
3C00
3800
7800
7800
7800
7800
7800
7000
F000
F000
F000
ENDCHAR

STARTCHAR dcroat
ENCODING 240
SWIDTH 501 0
DWIDTH 17 0
BBX 18 24 1 0
BITMAP
000780
000700
00FFC0
00FFC0
000F00
000F00
000F00
0FCE00
1FFE00
3FFE00
3C7E00
783E00
783E00
703C00
F03C00
F03C00
F03C00
F03C00
F07800
F07800
78F800
7FF800
3FB800
1F7800
ENDCHAR

STARTCHAR ncommaaccent
ENCODING 241
SWIDTH 501 0
DWIDTH 17 0
BBX 15 24 1 -7
BITMAP
1E78
1DFC
1FFE
3F1E
3E1E
3C1E
3C1E
3C1E
381C
783C
783C
783C
783C
7038
F078
F078
F078
0000
0000
0F00
0E00
0600
0E00
0C00
ENDCHAR

STARTCHAR omacron
ENCODING 242
SWIDTH 501 0
DWIDTH 17 0
BBX 15 23 1 0
BITMAP
03FC
07FC
07FC
0000
0000
0000
07F0
1FF8
3FFC
3E3C
7C1E
781E
F81E
F01E
F01E
F01E
F03C
F03C
787C
7FF8
3FF0
1FE0
0780
ENDCHAR

STARTCHAR kcommaaccent
ENCODING 243
SWIDTH 456 0
DWIDTH 15 0
BBX 16 31 1 -7
BITMAP
0F00
0F00
0F00
0E00
1E00
1E00
1E00
1E3F
1E3C
1C7C
3CF8
3DF0
3DE0
3FC0
3FC0
7FE0
7EE0
7CE0
78F0
78F0
70F0
F070
F078
F078
0000
0000
0E00
0E00
0600
0C00
1800
ENDCHAR

STARTCHAR ocircumflex
ENCODING 244
SWIDTH 501 0
DWIDTH 17 0
BBX 15 24 1 0
BITMAP
00F0
01F8
03D8
0398
0F1C
0000
0000
07F0
1FF8
3FFC
3E3C
7C1E
781E
F81E
F01E
F01E
F01E
F03C
F03C
787C
7FF8
3FF0
1FE0
0780
ENDCHAR

STARTCHAR otilde
ENCODING 245
SWIDTH 501 0
DWIDTH 17 0
BBX 15 23 1 0
BITMAP
01C6
03FC
03FC
0618
0000
0000
07F0
1FF8
3FFC
3E3C
7C1E
781E
F81E
F01E
F01E
F01E
F03C
F03C
787C
7FF8
3FF0
1FE0
0780
ENDCHAR

STARTCHAR odieresis
ENCODING 246
SWIDTH 501 0
DWIDTH 17 0
BBX 15 24 1 0
BITMAP
039E
039E
079C
079C
0000
0000
0000
07F0
1FF8
3FFC
3E3C
7C1E
781E
F81E
F01E
F01E
F01E
F03C
F03C
787C
7FF8
3FF0
1FE0
0780
ENDCHAR

STARTCHAR divide
ENCODING 247
SWIDTH 479 0
DWIDTH 16 0
BBX 14 17 2 3
BITMAP
0780
0780
0780
0780
0000
0000
0000
FFFC
FFFC
FFFC
FFFC
0000
0000
0780
0780
0780
0780
ENDCHAR

STARTCHAR oslash
ENCODING 248
SWIDTH 501 0
DWIDTH 17 0
BBX 15 20 1 -1
BITMAP
0004
0006
07EE
1FF8
3FFC
3E3C
7C7C
78EE
70DE
F1DE
F39E
F71E
F61C
F63C
7C7C
78F8
3FF0
7FE0
EFC0
4000
ENDCHAR

STARTCHAR uogonek
ENCODING 249
SWIDTH 501 0
DWIDTH 17 0
BBX 15 24 2 -7
BITMAP
3C1E
3C1E
3C1E
3C1E
781C
783C
783C
783C
783C
703C
F078
F078
F0F8
F9F8
FFB8
7F70
3C60
00C0
00C0
00C0
00C0
00FC
00F8
0078
ENDCHAR

STARTCHAR uacute
ENCODING 250
SWIDTH 501 0
DWIDTH 17 0
BBX 15 24 2 0
BITMAP
003C
0078
00F0
00E0
01C0
0000
0000
3C1E
3C1E
3C1E
381C
783C
783C
783C
783C
7838
7078
F078
F078
F0F8
F9F8
FFB0
7FF0
3800
ENDCHAR

STARTCHAR ucircumflex
ENCODING 251
SWIDTH 501 0
DWIDTH 17 0
BBX 15 24 2 0
BITMAP
00F0
01F8
03D8
0398
071C
0000
0000
3C1E
3C1E
3C1E
381C
783C
783C
783C
783C
7838
7078
F078
F078
F0F8
F9F8
FFB0
7FF0
3800
ENDCHAR

STARTCHAR udieresis
ENCODING 252
SWIDTH 501 0
DWIDTH 17 0
BBX 15 24 2 0
BITMAP
039E
039E
039C
079C
0000
0000
0000
3C1E
3C1E
3C1E
381C
783C
783C
783C
783C
7838
7078
F078
F078
F0F8
F9F8
FFB0
7FF0
3800
ENDCHAR

STARTCHAR utilde
ENCODING 253
SWIDTH 501 0
DWIDTH 17 0
BBX 15 23 2 0
BITMAP
038C
03FC
07F8
0630
0000
0000
3C1E
3C1E
3C1E
381C
783C
783C
783C
783C
7838
7078
F078
F078
F0F8
F9F8
FFB0
7F70
3CF0
ENDCHAR

STARTCHAR umacron
ENCODING 254
SWIDTH 501 0
DWIDTH 17 0
BBX 15 23 2 0
BITMAP
03FC
03FC
07FC
0000
0000
0000
3C1E
3C1E
3C1E
381C
783C
783C
783C
783C
7838
7078
F078
F078
F0F8
F9F8
FFB0
7FF0
3800
ENDCHAR

STARTCHAR dotaccent
ENCODING 255
SWIDTH 273 0
DWIDTH 9 0
BBX 5 4 4 20
BITMAP
78
78
70
F0
ENDCHAR
ENDFONT
